<svg width="246" height="44" viewBox="0 0 246 44" fill="none" xmlns="http://www.w3.org/2000/svg">
<g clip-path="url(#clip0_2606_228496)">
<path d="M25.9824 18.8584L9.44824 19.6436L30.0498 42.5928C27.5687 43.5599 24.8702 44.0927 22.0469 44.0928C9.87108 44.0928 0.00021648 34.2226 0 22.0469C0 13.4888 4.8763 6.0694 12.002 2.41602L25.9824 18.8584ZM22.0469 0C34.2226 0.000216467 44.0928 9.87108 44.0928 22.0469C44.0926 30.4219 39.422 37.705 32.5439 41.4365L20.4707 23.5723H39.3682L13.9062 1.55176C16.4247 0.550592 19.1717 0 22.0469 0Z" fill="#3D550C"/>
<path d="M62.3207 13.7502C62.8676 12.899 63.6221 12.2115 64.5844 11.6877C65.5467 11.164 66.6731 10.9021 67.9634 10.9021C69.4725 10.9021 70.8395 11.2839 72.0642 12.0479C73.289 12.8118 74.2514 13.9029 74.9512 15.3216C75.6729 16.7402 76.0338 18.3879 76.0338 20.2649C76.0338 22.1419 75.6729 23.8005 74.9512 25.241C74.2514 26.6596 73.289 27.7617 72.0642 28.5474C70.8395 29.3113 69.4725 29.6932 67.9634 29.6932C66.6949 29.6932 65.5685 29.4313 64.5844 28.9075C63.6221 28.3837 62.8676 27.7072 62.3207 26.8778V38.1394H56.7108V11.164H62.3207V13.7502ZM70.3255 20.2649C70.3255 18.8682 69.9318 17.7769 69.1444 16.9912C68.379 16.1837 67.4277 15.7799 66.2903 15.7799C65.1749 15.7799 64.2235 16.1837 63.4361 16.9912C62.6707 17.7987 62.2879 18.9009 62.2879 20.2976C62.2879 21.6944 62.6707 22.7966 63.4361 23.6041C64.2235 24.4116 65.1749 24.8154 66.2903 24.8154C67.4057 24.8154 68.3571 24.4116 69.1444 23.6041C69.9318 22.7747 70.3255 21.6617 70.3255 20.2649ZM77.6974 20.2649C77.6974 18.3879 78.0475 16.7402 78.7472 15.3216C79.469 13.9029 80.4423 12.8118 81.667 12.0479C82.8918 11.2839 84.2587 10.9021 85.7678 10.9021C87.0582 10.9021 88.1846 11.164 89.1469 11.6877C90.1311 12.2115 90.8856 12.899 91.4105 13.7502V11.164H97.0204V29.4313H91.4105V26.8451C90.8638 27.6963 90.0982 28.3837 89.1141 28.9075C88.1518 29.4313 87.0254 29.6932 85.735 29.6932C84.2479 29.6932 82.8918 29.3113 81.667 28.5474C80.4423 27.7617 79.469 26.6596 78.7472 25.241C78.0475 23.8005 77.6974 22.1419 77.6974 20.2649ZM91.4105 20.2976C91.4105 18.9009 91.0168 17.7987 90.2295 16.9912C89.4641 16.1837 88.5235 15.7799 87.4081 15.7799C86.2927 15.7799 85.3413 16.1837 84.554 16.9912C83.7886 17.7769 83.4058 18.8682 83.4058 20.2649C83.4058 21.6617 83.7886 22.7747 84.554 23.6041C85.3413 24.4116 86.2927 24.8154 87.4081 24.8154C88.5235 24.8154 89.4641 24.4116 90.2295 23.6041C91.0168 22.7966 91.4105 21.6944 91.4105 20.2976ZM119.615 11.164L108.132 38.1067H102.096L106.295 28.8093L98.8481 11.164H105.114L109.346 22.5893L113.545 11.164H119.615ZM121.053 25.1755V20.6578L131.42 5.86053H137.686V20.3304H140.376V25.1755H137.686V29.4313H132.076V25.1755H121.053ZM132.47 12.0151L126.958 20.3304H132.47V12.0151ZM149.127 13.7502C149.674 12.899 150.429 12.2115 151.39 11.6877C152.353 11.164 153.48 10.9021 154.769 10.9021C156.278 10.9021 157.646 11.2839 158.87 12.0479C160.095 12.8118 161.058 13.9029 161.757 15.3216C162.479 16.7402 162.84 18.3879 162.84 20.2649C162.84 22.1419 162.479 23.8005 161.757 25.241C161.058 26.6596 160.095 27.7617 158.87 28.5474C157.646 29.3113 156.278 29.6932 154.769 29.6932C153.501 29.6932 152.374 29.4313 151.39 28.9075C150.429 28.3837 149.674 27.7072 149.127 26.8778V38.1394H143.517V11.164H149.127V13.7502ZM157.131 20.2649C157.131 18.8682 156.738 17.7769 155.95 16.9912C155.186 16.1837 154.234 15.7799 153.096 15.7799C151.981 15.7799 151.029 16.1837 150.242 16.9912C149.477 17.7987 149.094 18.9009 149.094 20.2976C149.094 21.6944 149.477 22.7966 150.242 23.6041C151.029 24.4116 151.981 24.8154 153.096 24.8154C154.212 24.8154 155.163 24.4116 155.95 23.6041C156.738 22.7747 157.131 21.6617 157.131 20.2649ZM173.952 29.6932C172.159 29.6932 170.54 29.3113 169.097 28.5474C167.675 27.7835 166.549 26.6924 165.718 25.2737C164.909 23.855 164.504 22.1964 164.504 20.2976C164.504 18.4207 164.919 16.773 165.751 15.3543C166.582 13.9139 167.719 12.8118 169.162 12.0479C170.606 11.2839 172.225 10.9021 174.018 10.9021C175.811 10.9021 177.43 11.2839 178.873 12.0479C180.317 12.8118 181.453 13.9139 182.285 15.3543C183.116 16.773 183.532 18.4207 183.532 20.2976C183.532 22.1746 183.105 23.8333 182.252 25.2737C181.421 26.6924 180.272 27.7835 178.807 28.5474C177.364 29.3113 175.745 29.6932 173.952 29.6932ZM173.952 24.8481C175.023 24.8481 175.932 24.4553 176.675 23.6696C177.441 22.8839 177.823 21.7599 177.823 20.2976C177.823 18.8354 177.451 17.7114 176.708 16.9257C175.986 16.14 175.089 15.7472 174.018 15.7472C172.924 15.7472 172.017 16.14 171.295 16.9257C170.573 17.6896 170.212 18.8135 170.212 20.2976C170.212 21.7599 170.562 22.8839 171.262 23.6696C171.984 24.4553 172.881 24.8481 173.952 24.8481ZM212.622 11.164L207.668 29.4313H201.468L198.581 17.5805L195.596 29.4313H189.428L184.441 11.164H190.051L192.643 24.2261L195.727 11.164H201.665L204.781 24.1606L207.34 11.164H212.622ZM231.853 20.003C231.853 20.5268 231.82 21.0724 231.754 21.6399H219.058C219.145 22.7747 219.506 23.6478 220.141 24.2588C220.797 24.8481 221.596 25.1428 222.536 25.1428C223.935 25.1428 224.909 24.5535 225.456 23.3749H231.426C231.12 24.5753 230.562 25.6556 229.753 26.6159C228.966 27.5763 227.97 28.3292 226.768 28.8748C225.565 29.4204 224.22 29.6932 222.733 29.6932C220.94 29.6932 219.342 29.3113 217.943 28.5474C216.544 27.7835 215.45 26.6924 214.662 25.2737C213.875 23.855 213.481 22.1964 213.481 20.2976C213.481 18.3989 213.864 16.7402 214.63 15.3216C215.417 13.9029 216.511 12.8118 217.91 12.0479C219.309 11.2839 220.917 10.9021 222.733 10.9021C224.504 10.9021 226.079 11.2731 227.457 12.0151C228.835 12.7571 229.906 13.8157 230.672 15.1906C231.459 16.5656 231.853 18.1697 231.853 20.003ZM226.112 18.5298C226.112 17.5695 225.784 16.8057 225.128 16.2382C224.471 15.6707 223.651 15.3871 222.667 15.3871C221.727 15.3871 220.928 15.6599 220.272 16.2055C219.638 16.7511 219.244 17.5259 219.091 18.5298H226.112ZM240.259 14.2085C240.915 13.2046 241.735 12.4189 242.719 11.8514C243.704 11.2622 244.796 10.9675 246 10.9675V16.893H244.458C243.058 16.893 242.008 17.1986 241.309 17.8096C240.608 18.3989 240.259 19.4465 240.259 20.9524V29.4313H234.648V11.164H240.259V14.2085Z" fill="#3D550C"/>
</g>
<defs>
<clipPath id="clip0_2606_228496">
<rect width="246" height="44" fill="white"/>
</clipPath>
</defs>
</svg>
